<?xml version="1.0" encoding="UTF-8" standalone="no"?>
<!-- Created with Inkscape (http://www.inkscape.org/) -->

<svg
        width="100.0001mm"
        height="100mm"
        viewBox="0 0 100.0001 100"
        version="1.1"
        id="svg296"
        xmlns="http://www.w3.org/2000/svg">
  <defs
          id="defs293"/>
  <g
          id="layer1">
    <path
            id="rect352"
            style="fill:#ff0000;stroke-width:0.264583"
            d="m 61.149756,100.0001 a 49.217486,49.217486 0 0 0 0.242363,-1.280029 49.217486,49.217486 0 0 0 0.412377,-3.65714 49.217486,49.217486 0 0 0 0.0036,-0.0496 49.217486,49.217486 0 0 0 0.0036,-0.0496 49.217486,49.217486 0 0 0 0.0036,-0.0496 49.217486,49.217486 0 0 0 0.0036,-0.0496 49.217486,49.217486 0 0 0 0.0036,-0.0496 49.217486,49.217486 0 0 0 0.0031,-0.0496 49.217486,49.217486 0 0 0 0.0036,-0.0496 49.217486,49.217486 0 0 0 0.0031,-0.0496 49.217486,49.217486 0 0 0 0.0036,-0.0501 49.217486,49.217486 0 0 0 0.0031,-0.0496 49.217486,49.217486 0 0 0 0.0031,-0.0496 49.217486,49.217486 0 0 0 0.0031,-0.0496 49.217486,49.217486 0 0 0 0.0031,-0.0496 49.217486,49.217486 0 0 0 0.0031,-0.0496 49.217486,49.217486 0 0 0 0.0031,-0.0496 49.217486,49.217486 0 0 0 0.0026,-0.0496 49.217486,49.217486 0 0 0 0.0031,-0.0496 49.217486,49.217486 0 0 0 0.0026,-0.0496 49.217486,49.217486 0 0 0 0.0031,-0.0496 49.217486,49.217486 0 0 0 0.0026,-0.0501 49.217486,49.217486 0 0 0 0.0026,-0.0496 49.217486,49.217486 0 0 0 0.0026,-0.0496 49.217486,49.217486 0 0 0 0.0026,-0.0496 49.217486,49.217486 0 0 0 0.0026,-0.0496 49.217486,49.217486 0 0 0 0.0026,-0.0496 49.217486,49.217486 0 0 0 0.0026,-0.0496 49.217486,49.217486 0 0 0 0.0021,-0.0501 49.217486,49.217486 0 0 0 0.0026,-0.0496 49.217486,49.217486 0 0 0 0.0021,-0.0496 49.217486,49.217486 0 0 0 0.0026,-0.0496 49.217486,49.217486 0 0 0 0.0021,-0.0496 49.217486,49.217486 0 0 0 0.0021,-0.0496 49.217486,49.217486 0 0 0 0.0021,-0.0501 49.217486,49.217486 0 0 0 0.0021,-0.0496 49.217486,49.217486 0 0 0 0.0021,-0.0496 49.217486,49.217486 0 0 0 0.0021,-0.0496 49.217486,49.217486 0 0 0 0.0016,-0.0496 49.217486,49.217486 0 0 0 0.0021,-0.0501 49.217486,49.217486 0 0 0 0.0016,-0.0496 49.217486,49.217486 0 0 0 0.0021,-0.0496 49.217486,49.217486 0 0 0 0.0015,-0.0496 49.217486,49.217486 0 0 0 0.0016,-0.0496 49.217486,49.217486 0 0 0 0.0016,-0.0501 49.217486,49.217486 0 0 0 0.0016,-0.0496 49.217486,49.217486 0 0 0 0.0016,-0.0496 49.217486,49.217486 0 0 0 0.0016,-0.0496 49.217486,49.217486 0 0 0 0.001,-0.0501 49.217486,49.217486 0 0 0 0.0016,-0.0496 49.217486,49.217486 0 0 0 0.001,-0.0496 49.217486,49.217486 0 0 0 0.0016,-0.0496 49.217486,49.217486 0 0 0 10e-4,-0.0496 49.217486,49.217486 0 0 0 0.001,-0.0501 49.217486,49.217486 0 0 0 10e-4,-0.0496 49.217486,49.217486 0 0 0 10e-4,-0.0496 49.217486,49.217486 0 0 0 0.001,-0.0496 49.217486,49.217486 0 0 0 10e-4,-0.0501 49.217486,49.217486 0 0 0 10e-4,-0.0496 49.217486,49.217486 0 0 0 5.17e-4,-0.0496 49.217486,49.217486 0 0 0 10e-4,-0.0496 49.217486,49.217486 0 0 0 5.17e-4,-0.0501 49.217486,49.217486 0 0 0 5.17e-4,-0.0496 49.217486,49.217486 0 0 0 10e-4,-0.0496 49.217486,49.217486 0 0 0 5.17e-4,-0.0501 49.217486,49.217486 0 0 0 5.17e-4,-0.0496 49.217486,49.217486 0 0 0 5.17e-4,-0.0496 49.217486,49.217486 0 0 0 0,-0.0496 49.217486,49.217486 0 0 0 5.17e-4,-0.0501 49.217486,49.217486 0 0 0 5.16e-4,-0.0496 49.217486,49.217486 0 0 0 0,-0.0496 49.217486,49.217486 0 0 0 5.17e-4,-0.0496 49.217486,49.217486 0 0 0 0,-0.0501 49.217486,49.217486 0 0 0 0,-0.0496 49.217486,49.217486 0 0 0 0,-0.0496 49.217486,49.217486 0 0 0 0,-0.0496 49.217486,49.217486 0 0 0 0,-0.017 49.217486,49.217486 0 0 0 0,-0.0171 49.217486,49.217486 0 0 0 0,-0.017 49.217486,49.217486 0 0 0 0,-0.0165 49.217486,49.217486 0 0 0 0,-0.017 49.217486,49.217486 0 0 0 0,-0.017 49.217486,49.217486 0 0 0 0,-0.0165 49.217486,49.217486 0 0 0 0,-0.017 49.217486,49.217486 0 0 0 0,-0.0171 49.217486,49.217486 0 0 0 0,-0.017 49.217486,49.217486 0 0 0 0,-0.0165 49.217486,49.217486 0 0 0 0,-0.017 49.217486,49.217486 0 0 0 0,-0.017 49.217486,49.217486 0 0 0 -5.17e-4,-0.0165 49.217486,49.217486 0 0 0 0,-0.017 49.217486,49.217486 0 0 0 0,-0.0171 49.217486,49.217486 0 0 0 0,-0.017 49.217486,49.217486 0 0 0 0,-0.0165 49.217486,49.217486 0 0 0 0,-0.0171 49.217486,49.217486 0 0 0 -5.16e-4,-0.017 49.217486,49.217486 0 0 0 0,-0.0165 49.217486,49.217486 0 0 0 0,-0.0171 49.217486,49.217486 0 0 0 0,-0.017 49.217486,49.217486 0 0 0 -5.17e-4,-0.0171 49.217486,49.217486 0 0 0 0,-0.0165 49.217486,49.217486 0 0 0 0,-0.0171 49.217486,49.217486 0 0 0 0,-0.0171 49.217486,49.217486 0 0 0 -5.17e-4,-0.0165 49.217486,49.217486 0 0 0 0,-0.017 49.217486,49.217486 0 0 0 0,-0.017 49.217486,49.217486 0 0 0 -5.17e-4,-0.0165 49.217486,49.217486 0 0 0 0,-0.017 49.217486,49.217486 0 0 0 0,-0.0171 49.217486,49.217486 0 0 0 -5.17e-4,-0.017 49.217486,49.217486 0 0 0 0,-0.0165 49.217486,49.217486 0 0 0 0,-0.017 49.217486,49.217486 0 0 0 -5.16e-4,-0.017 49.217486,49.217486 0 0 0 0,-0.0165 49.217486,49.217486 0 0 0 -5.17e-4,-0.017 49.217486,49.217486 0 0 0 0,-0.0171 49.217486,49.217486 0 0 0 -5.17e-4,-0.017 49.217486,49.217486 0 0 0 0,-0.0165 49.217486,49.217486 0 0 0 0,-0.017 49.217486,49.217486 0 0 0 -5.17e-4,-0.017 49.217486,49.217486 0 0 0 0,-0.0165 49.217486,49.217486 0 0 0 -5.16e-4,-0.017 49.217486,49.217486 0 0 0 0,-0.017 49.217486,49.217486 0 0 0 -5.17e-4,-0.0171 49.217486,49.217486 0 0 0 -5.17e-4,-0.0165 49.217486,49.217486 0 0 0 0,-0.0171 49.217486,49.217486 0 0 0 -5.17e-4,-0.017 49.217486,49.217486 0 0 0 0,-0.0165 49.217486,49.217486 0 0 0 -5.16e-4,-0.017 49.217486,49.217486 0 0 0 0,-0.0171 49.217486,49.217486 0 0 0 -5.17e-4,-0.0165 49.217486,49.217486 0 0 0 -5.17e-4,-0.017 49.217486,49.217486 0 0 0 0,-0.0171 49.217486,49.217486 0 0 0 -5.17e-4,-0.017 49.217486,49.217486 0 0 0 0,-0.0165 49.217486,49.217486 0 0 0 -5.16e-4,-0.017 49.217486,49.217486 0 0 0 -5.17e-4,-0.017 49.217486,49.217486 0 0 0 0,-0.0165 49.217486,49.217486 0 0 0 -5.17e-4,-0.017 49.217486,49.217486 0 0 0 -5.17e-4,-0.0171 49.217486,49.217486 0 0 0 -5.17e-4,-0.017 49.217486,49.217486 0 0 0 0,-0.0165 49.217486,49.217486 0 0 0 -5.16e-4,-0.017 49.217486,49.217486 0 0 0 -5.17e-4,-0.017 49.217486,49.217486 0 0 0 -5.17e-4,-0.0165 49.217486,49.217486 0 0 0 0,-0.017 49.217486,49.217486 0 0 0 -5.17e-4,-0.017 49.217486,49.217486 0 0 0 -5.16e-4,-0.0165 49.217486,49.217486 0 0 0 -5.17e-4,-0.017 49.217486,49.217486 0 0 0 -5.17e-4,-0.0171 49.217486,49.217486 0 0 0 0,-0.017 49.217486,49.217486 0 0 0 -0.04961,-1.26607 49.217486,49.217486 0 0 0 -0.08113,-1.26453 49.217486,49.217486 0 0 0 -0.114205,-1.26245 49.217486,49.217486 0 0 0 -0.146244,-1.25936 49.217486,49.217486 0 0 0 -0.179318,-1.253666 49.217486,49.217486 0 0 0 -0.21084,-1.25057 49.217486,49.217486 0 0 0 -0.242879,-1.243335 49.217486,49.217486 0 0 0 -0.275435,-1.237133 49.217486,49.217486 0 0 0 -0.306958,-1.229899 49.217486,49.217486 0 0 0 -0.338998,-1.220598 49.217486,49.217486 0 0 0 -0.369486,-1.212329 49.217486,49.217486 0 0 0 -0.401009,-1.20251 49.217486,49.217486 0 0 0 -0.432015,-1.191659 49.217486,49.217486 0 0 0 -0.461471,-1.179773 49.217486,49.217486 0 0 0 -0.492993,-1.167887 49.217486,49.217486 0 0 0 -0.522449,-1.154452 49.217486,49.217486 0 0 0 -0.551904,-1.141015 49.217486,49.217486 0 0 0 -0.58136,-1.12603 49.217486,49.217486 0 0 0 -0.609782,-1.11156 49.217486,49.217486 0 0 0 -0.638204,-1.094507 49.217486,49.217486 0 0 0 -0.666626,-1.078487 49.217486,49.217486 0 0 0 -0.693497,-1.059884 49.217486,49.217486 0 0 0 -0.721403,-1.042313 49.217486,49.217486 0 0 0 -0.747241,-1.02371 49.217486,49.217486 0 0 0 -0.774113,-1.003557 49.217486,49.217486 0 0 0 -0.799435,-0.983402 49.217486,49.217486 0 0 0 -0.823722,-0.962732 49.217486,49.217486 0 0 0 -0.849561,-0.941028 49.217486,49.217486 0 0 0 -0.872298,-0.918807 49.217486,49.217486 0 0 0 -0.896069,-0.896069 49.217486,49.217486 0 0 0 -0.919324,-0.872815 49.217486,49.217486 0 0 0 -0.940511,-0.849044 49.217486,49.217486 0 0 0 -0.963249,-0.824239 49.217486,49.217486 0 0 0 -0.983402,-0.798918 49.217486,49.217486 0 0 0 -1.003557,-0.774113 49.217486,49.217486 0 0 0 -1.02371,-0.747758 49.217486,49.217486 0 0 0 -1.042313,-0.720886 49.217486,49.217486 0 0 0 -1.060917,-0.694014 49.217486,49.217486 0 0 0 -1.076937,-0.66611 49.217486,49.217486 0 0 0 -1.095024,-0.63872 49.217486,49.217486 0 0 0 -1.11156,-0.609265 49.217486,49.217486 0 0 0 -1.126029,-0.581877 49.217486,49.217486 0 0 0 -1.141016,-0.551904 49.217486,49.217486 0 0 0 -1.154452,-0.522449 49.217486,49.217486 0 0 0 -1.167887,-0.492476 49.217486,49.217486 0 0 0 -1.179256,-0.461988 49.217486,49.217486 0 0 0 -1.192175,-0.432015 49.217486,49.217486 0 0 0 -1.202511,-0.401009 49.217486,49.217486 0 0 0 -1.212329,-0.369486 49.217486,49.217486 0 0 0 -1.220597,-0.338481 49.217486,49.217486 0 0 0 -1.2299,-0.307475 49.217486,49.217486 0 0 0 -1.237133,-0.274918 49.217486,49.217486 0 0 0 -1.243335,-0.243396 49.217486,49.217486 0 0 0 -1.250053,-0.21084 49.217486,49.217486 0 0 0 -1.255221,-0.178801 49.217486,49.217486 0 0 0 -1.258321,-0.146244 49.217486,49.217486 0 0 0 -1.262455,-0.114722 49.217486,49.217486 0 0 0 -1.264522,-0.08113 49.217486,49.217486 0 0 0 -1.266073,-0.04909 49.217486,49.217486 0 0 0 -1.267623,-0.01602 49.217486,49.217486 0 0 0 -3.677812,0.136943 49.217486,49.217486 0 0 0 -3.657657,0.412894 49.217486,49.217486 0 0 0 -3.616317,0.68368 A 49.217486,49.217486 0 0 0 0,43.875875 v 37.90518 C 0,91.874421 8.125681,100.0001 18.219043,100.0001 Z"/>
    <path
            id="path469"
            style="fill:#e6e6e6;stroke-width:0.264583"
            d="M 18.219043,0 C 8.125681,0 0,8.125681 0,18.219043 v 16.455843 a 58.12755,58.12755 0 0 1 4.060734,-0.768428 58.12755,58.12755 0 0 1 4.319633,-0.486792 58.12755,58.12755 0 0 1 4.343921,-0.162264 58.12755,58.12755 0 0 1 1.49655,0.01912 58.12755,58.12755 0 0 1 1.495516,0.05788 58.12755,58.12755 0 0 1 1.493965,0.09612 58.12755,58.12755 0 0 1 1.490349,0.134875 58.12755,58.12755 0 0 1 1.486731,0.173116 58.12755,58.12755 0 0 1 1.48208,0.211357 58.12755,58.12755 0 0 1 1.475879,0.24908 58.12755,58.12755 0 0 1 1.468644,0.287321 58.12755,58.12755 0 0 1 1.461409,0.325045 58.12755,58.12755 0 0 1 1.452108,0.362768 58.12755,58.12755 0 0 1 1.442289,0.399459 58.12755,58.12755 0 0 1 1.431954,0.437183 58.12755,58.12755 0 0 1 1.419552,0.473356 58.12755,58.12755 0 0 1 1.407666,0.510046 58.12755,58.12755 0 0 1 1.393196,0.545704 58.12755,58.12755 0 0 1 1.379244,0.581876 58.12755,58.12755 0 0 1 1.363741,0.617017 58.12755,58.12755 0 0 1 1.347205,0.65164 58.12755,58.12755 0 0 1 1.330151,0.686779 58.12755,58.12755 0 0 1 1.312065,0.72037 58.12755,58.12755 0 0 1 1.293461,0.753959 58.12755,58.12755 0 0 1 1.272791,0.787032 58.12755,58.12755 0 0 1 1.252636,0.819072 58.12755,58.12755 0 0 1 1.230933,0.851627 58.12755,58.12755 0 0 1 1.208712,0.88315 58.12755,58.12755 0 0 1 1.185457,0.91364 58.12755,58.12755 0 0 1 1.161686,0.943611 58.12755,58.12755 0 0 1 1.136882,0.973584 58.12755,58.12755 0 0 1 1.11156,1.002523 58.12755,58.12755 0 0 1 1.085205,1.030945 58.12755,58.12755 0 0 1 1.058333,1.058333 58.12755,58.12755 0 0 1 1.030945,1.085205 58.12755,58.12755 0 0 1 1.002523,1.11156 58.12755,58.12755 0 0 1 0.973584,1.136882 58.12755,58.12755 0 0 1 0.943611,1.161686 58.12755,58.12755 0 0 1 0.914157,1.185457 58.12755,58.12755 0 0 1 0.882633,1.208712 58.12755,58.12755 0 0 1 0.851628,1.230933 58.12755,58.12755 0 0 1 0.819588,1.252637 58.12755,58.12755 0 0 1 0.787032,1.273307 58.12755,58.12755 0 0 1 0.753959,1.292944 58.12755,58.12755 0 0 1 0.720369,1.312065 58.12755,58.12755 0 0 1 0.686264,1.330151 58.12755,58.12755 0 0 1 0.651639,1.347205 58.12755,58.12755 0 0 1 0.617017,1.363741 58.12755,58.12755 0 0 1 0.581877,1.379244 58.12755,58.12755 0 0 1 0.546219,1.393713 58.12755,58.12755 0 0 1 0.50953,1.407149 58.12755,58.12755 0 0 1 0.473873,1.420069 58.12755,58.12755 0 0 1 0.436666,1.431437 58.12755,58.12755 0 0 1 0.399975,1.442289 58.12755,58.12755 0 0 1 0.362252,1.452108 58.12755,58.12755 0 0 1 0.325045,1.461409 58.12755,58.12755 0 0 1 0.287321,1.468645 58.12755,58.12755 0 0 1 0.249597,1.475879 58.12755,58.12755 0 0 1 0.21084,1.48208 58.12755,58.12755 0 0 1 0.173116,1.486728 58.12755,58.12755 0 0 1 0.134875,1.49087 58.12755,58.12755 0 0 1 0.09612,1.49345 58.12755,58.12755 0 0 1 0.05788,1.49551 58.12755,58.12755 0 0 1 0.01912,1.49707 58.12755,58.12755 0 0 1 -0.01912,1.49655 58.12755,58.12755 0 0 1 -0.05788,1.49551 58.12755,58.12755 0 0 1 -0.09612,1.49397 58.12755,58.12755 0 0 1 -0.134875,1.49035 58.12755,58.12755 0 0 1 -0.173116,1.48673 58.12755,58.12755 0 0 1 -0.163814,1.151875 h 11.574487 c 10.093362,0 18.219045,-8.125685 18.219045,-18.219051 V 18.219043 C 100.0001,8.125681 91.874417,0 81.781055,0 Z"/>
    <path
            style="fill:#ff0000;stroke-width:0.264583"
            id="path434"
            d="m 53.985226,13.087327 -5.419631,2.82618 -0.744332,6.066767 -4.362615,-4.281038 -5.999849,1.166832 2.723387,-5.472007 -2.963779,-5.3456247 6.04576,0.8991518 4.168134,-4.47061 1.013099,6.0277129 z"/>
    <path
            style="fill:#ff0000;stroke-width:0.264583"
            id="path436"
            d="m 82.818246,41.71586 -3.215133,-0.684715 -2.38676,2.260374 -0.342328,-3.269362 -2.887293,-1.571449 3.003563,-1.335862 0.602315,-3.231583 2.198631,2.443754 3.259544,-0.425779 -1.644733,2.846184 z"/>
    <path
            style="fill:#ff0000;stroke-width:0.264583"
            id="path438"
            d="m 86.703548,80.773349 0.05379,1.336337 1.13134,0.713276 -1.254309,0.464113 -0.328762,1.296382 -0.829,-1.0495 -1.334527,0.08793 0.741959,-1.11274 -0.49602,-1.242037 1.287556,0.36179 z"/>
  </g>
</svg>
